PathFileType	4	(X/Y/Z)	C:\Users\JDoe\SprintMotion.trc
DataRate	CameraRate	NumFrames	NumMarkers	Units	OrigDataRate	OrigDataStartFrame	OrigNumFrames
250.00	250.00	       4	59	mm	250.00	395	       788
Frame#	Time	C7			T8			T12			R.AA			R.AC			R.Scapula			R.HeadHum			R.Hum			R.Epi.Med			R.Epi.Lat			R.Ulna			R.Wrist.Uln			R.Wrist.Rad			R.Hand			L.AA			L.AC			L.Scapula			L.HeadHum			L.Hum			L.Epi.Med			L.Epi.Lat			L.Ulna			L.Wrist.Uln			L.Wrist.Rad			L.Hand			Tete.H			Tete.D			Tete.G			Sacral			R.EIAS			LEIAS			R.Crete			L.Crete			R.GT			R.Hip			R.Knee.Med			R.Knee.Lat			R.TTA			R.Fibula			R.Ankle.Med			R.Ankle.Lat			R.Calca			R.Foot.Med			R.Foot.Lat			L.GT			L.Hip			L.Knee.Med			L.Knee.Lat			L.TTA			L.Fibula			L.Ankle.Med			L.Ankle.Lat			L.Calca			L.Foot.Med			L.Foot.Lat			StartG			StartD			StartAvt			StartArr			
		X1	Y1	Z1	X2	Y2	Z2	X3	Y3	Z3	X4	Y4	Z4	X5	Y5	Z5	X6	Y6	Z6	X7	Y7	Z7	X8	Y8	Z8	X9	Y9	Z9	X10	Y10	Z10	X11	Y11	Z11	X12	Y12	Z12	X13	Y13	Z13	X14	Y14	Z14	X15	Y15	Z15	X16	Y16	Z16	X17	Y17	Z17	X18	Y18	Z18	X19	Y19	Z19	X20	Y20	Z20	X21	Y21	Z21	X22	Y22	Z22	X23	Y23	Z23	X24	Y24	Z24	X25	Y25	Z25	X26	Y26	Z26	X27	Y27	Z27	X28	Y28	Z28	X29	Y29	Z29	X30	Y30	Z30	X31	Y31	Z31	X32	Y32	Z32	X33	Y33	Z33	X34	Y34	Z34	X35	Y35	Z35	X36	Y36	Z36	X37	Y37	Z37	X38	Y38	Z38	X39	Y39	Z39	X40	Y40	Z40	X41	Y41	Z41	X42	Y42	Z42	X43	Y43	Z43	X44	Y44	Z44	X45	Y45	Z45	X46	Y46	Z46	X47	Y47	Z47	X48	Y48	Z48	X49	Y49	Z49	X50	Y50	Z50	X51	Y51	Z51	X52	Y52	Z52	X53	Y53	Z53	X54	Y54	Z54	X55	Y55	Z55	X56	Y56	Z56	X57	Y57	Z57	X58	Y58	Z58	X59	Y59	Z59	

395	1.576	199.20688	69.52296	694.34155	42.63780	63.44702	831.16241	-89.61437	61.69448	886.86487	192.67450	-31.61367	726.80231	142.68277	-8.76264	591.45648	196.07053	-49.27309	649.48010	177.17650	-132.19682	602.63293	87.70522	-179.23788	493.19757	-12.68140	-127.26711	411.85736	74.13319	-183.99530	402.27850	28.82426	-200.53847	257.86691	-47.18024	-204.74298	130.03191	-2.80216	-166.12457	119.57394	-31.32441	-219.17276	95.31234	180.65915	186.33891	736.21674	131.49287	163.88843	595.27448	178.94142	213.66380	642.28625	155.94589	292.50323	591.91663	41.88966	335.07193	519.02161	-9.90647	279.86386	412.76907	69.17668	342.05679	409.77859	-21.68250	357.41638	295.39487	-61.75917	356.15866	128.66394	-13.53940	318.34509	105.36534	-32.50538	370.79254	93.47533	417.73438	81.20142	589.43433	375.96988	75.21619	482.17279	358.28976	77.34248	689.37219	-283.66193	77.69412	937.69354	-225.03207	-16.02477	725.59961	-202.86201	138.14023	719.72302	-197.05945	-82.13840	838.40729	-175.28290	206.08208	819.79730	-335.01932	-111.94598	838.09363	-264.73276	-46.22702	632.86829	-446.28745	37.27651	411.45639	-423.52271	-76.27174	412.50137	-469.08508	-12.32252	313.01538	-515.53217	-88.25972	332.40723	-776.01685	30.38894	215.06540	-789.67200	-58.26889	224.70821	-839.30170	-8.04732	271.86429	-764.10156	-5.26468	58.58655	-771.78290	-63.95188	63.53987	-271.07880	257.52353	827.68176	-272.92136	261.85031	662.28442	-239.12894	109.18491	427.08765	-210.45924	213.78795	419.42160	-232.63705	160.70863	314.56412	-339.11908	235.27101	334.68585	-543.56903	122.26463	204.05296	-565.29968	213.44101	213.21523	-613.87476	162.55400	256.66132	-512.65680	131.65945	52.18075	-509.53809	205.75790	59.69784	-596.40485	267.10379	25.98352	-930.85193	-121.67487	33.35791	-519.90723	71.36758	45.00350	-1120.16699	77.78674	55.90571	
396	1.580	199.11029	69.54513	694.32727	42.54877	63.50136	831.14014	-89.68634	61.78798	886.83954	192.61687	-31.58037	726.80627	142.58661	-8.79506	591.45648	196.01587	-49.26667	649.48071	177.16945	-132.19499	602.64099	87.68460	-179.26862	493.22586	-12.75551	-127.37964	411.88290	74.05492	-183.97009	402.22809	28.80308	-200.57748	257.91040	-47.18358	-204.77974	130.00841	-2.79642	-166.14894	119.58666	-31.30844	-219.18404	95.29858	180.61943	186.34859	736.21527	131.46323	163.87175	595.26141	178.93205	213.64615	642.27179	155.94576	292.48779	591.90436	41.88364	335.10638	519.03601	-9.90251	279.87405	412.76877	69.20163	342.07788	409.78101	-21.67367	357.43610	295.37610	-61.78488	356.16257	128.64487	-13.55327	318.33667	105.36976	-32.51178	370.80182	93.47619	417.77359	81.19499	589.54663	376.01273	75.23589	482.29254	358.25656	77.31911	689.42432	-283.73080	77.77033	937.62207	-225.13837	-15.88284	725.40594	-202.93948	138.20610	719.69873	-197.17661	-82.08379	838.33093	-175.36850	206.13245	819.74902	-335.09229	-111.89807	838.07904	-264.76498	-46.20607	632.82941	-446.33215	37.32297	411.39008	-423.58701	-76.26752	412.41125	-469.12427	-12.46906	312.87863	-515.56738	-88.25822	332.36145	-776.05737	30.43409	215.08939	-789.77484	-58.26482	224.74004	-839.36646	-8.02218	271.83301	-764.10297	-5.26485	58.58629	-771.79120	-63.92633	63.55528	-271.14392	257.57260	827.61584	-272.98242	261.92538	662.23309	-239.07637	109.26994	427.05905	-210.43858	213.84074	419.33994	-232.61259	160.80765	314.51373	-339.15900	235.36958	334.69485	-543.56952	122.25328	204.04932	-565.27747	213.40758	213.20232	-613.87390	162.53456	256.66400	-512.65649	131.66150	52.17850	-509.53088	205.75754	59.68245	-596.41809	267.09802	25.98090	-930.85547	-121.67487	33.36176	-519.90894	71.36710	45.00534	-1120.16748	77.78139	55.90658	
397	1.584	199.01517	69.56192	694.30090	42.46329	63.55795	831.11194	-89.76527	61.89076	886.80701	192.56509	-31.54042	726.80713	142.48764	-8.83255	591.45465	195.96292	-49.26077	649.47473	177.16313	-132.19281	602.65167	87.66862	-179.29605	493.24841	-12.81924	-127.47523	411.90765	73.98521	-183.95107	402.18442	28.78775	-200.61656	257.94800	-47.17910	-204.81642	129.98576	-2.78580	-166.17671	119.60023	-31.28124	-219.20042	95.27925	180.56787	186.36615	736.20520	131.41818	163.84937	595.24323	178.90364	213.63229	642.24200	155.94208	292.47452	591.89136	41.87809	335.14841	519.04449	-9.89538	279.89548	412.76718	69.23390	342.10556	409.77905	-21.66009	357.46170	295.35037	-61.82231	356.16824	128.61072	-13.57398	318.32776	105.37415	-32.51758	370.80704	93.47333	417.80405	81.18671	589.65063	376.05887	75.25336	482.41559	358.22385	77.29276	689.47644	-283.80408	77.85388	937.54059	-225.24342	-15.73719	725.22583	-203.00940	138.26323	719.67108	-197.28717	-82.03281	838.26074	-175.45653	206.18329	819.69659	-335.15790	-111.85260	838.06744	-264.80222	-46.18016	632.78436	-446.37708	37.36567	411.32526	-423.64883	-76.27023	412.33255	-469.17078	-12.62301	312.72574	-515.59845	-88.26421	332.31595	-776.09967	30.47570	215.11389	-789.87732	-58.25999	224.76370	-839.43616	-8.00336	271.79846	-764.10596	-5.26571	58.58717	-771.79749	-63.90692	63.56733	-271.21027	257.62958	827.54059	-273.05304	262.00827	662.17474	-239.02647	109.35037	427.02115	-210.41257	213.90025	419.24854	-232.58971	160.90834	314.45184	-339.20026	235.46071	334.70554	-543.57025	122.23972	204.04532	-565.25879	213.37894	213.19147	-613.87726	162.51433	256.66556	-512.65631	131.66309	52.17664	-509.52283	205.75674	59.66379	-596.43024	267.09381	25.97833	-930.85950	-121.67442	33.36296	-519.91162	71.36595	45.00518	-1120.16760	77.77609	55.90696	
398	1.588	198.92076	69.57491	694.26416	42.38122	63.61551	831.07867	-89.85102	62.00057	886.76666	192.51930	-31.49402	726.80627	142.38438	-8.87104	591.45380	195.91107	-49.25291	649.46277	177.15781	-132.18962	602.66479	87.65668	-179.31834	493.26514	-12.87101	-127.55007	411.92941	73.92649	-183.93794	402.14880	28.77914	-200.65381	257.97772	-47.16694	-204.85167	129.96544	-2.77140	-166.20587	119.61373	-31.24403	-219.22163	95.25571	180.50313	186.39171	736.18738	131.36179	163.82353	595.21851	178.85887	213.62296	642.19995	155.93523	292.46375	591.87848	41.87463	335.19727	519.04620	-9.88581	279.92511	412.76443	69.27362	342.13861	409.77353	-21.64150	357.49365	295.31723	-61.86914	356.17560	128.56363	-13.59909	318.31882	105.37853	-32.52240	370.80820	93.46700	417.82376	81.17553	589.74475	376.10529	75.26765	482.53839	358.19125	77.26392	689.52759	-283.88260	77.94463	937.44940	-225.34520	-15.59221	725.06360	-203.06929	138.31233	719.64117	-197.39163	-81.98531	838.19684	-175.54530	206.23421	819.64154	-335.21634	-111.80892	838.05737	-264.84396	-46.14898	632.73425	-446.42151	37.40453	411.26297	-423.70737	-76.28104	412.26697	-469.22510	-12.77903	312.55722	-515.62573	-88.27801	332.26941	-776.14154	30.51247	215.13785	-789.97565	-58.25430	224.77982	-839.50970	-7.99099	271.76147	-764.11053	-5.26733	58.58905	-771.80212	-63.89297	63.57619	-271.27808	257.69531	827.45593	-273.13364	262.09930	662.10822	-238.98122	109.42564	426.97403	-210.38251	213.96689	419.14902	-232.56793	161.01144	314.37775	-339.24179	235.54390	334.71756	-543.57111	122.22412	204.04103	-565.24414	213.35577	213.18289	-613.88489	162.49414	256.66650	-512.65662	131.66434	52.17533	-509.51364	205.75562	59.64192	-596.44080	267.09106	25.97569	-930.86395	-121.67335	33.36105	-519.91473	71.36403	45.00327	-1120.16724	77.77116	55.90659	
